{
	"asset":{
		"generator":"Khronos glTF Blender I/O v3.5.30",
		"version":"2.0"
	},
	"extensionsUsed":[
		"KHR_materials_emissive_strength"
	],
	"scene":0,
	"scenes":[
		{
			"name":"Scene",
			"nodes":[
				0
			]
		}
	],
	"nodes":[
		{
			"mesh":0,
			"name":"Cube.012_Door_0.002",
			"rotation":[
				-0.7052344679832458,
				-0.027877338230609894,
				-0.0341511107981205,
				0.7076022624969482
			],
			"translation":[
				-0.877806544303894,
				-0.02631315402686596,
				8.381168365478516
			]
		}
	],
	"materials":[
		{
			"doubleSided":true,
			"emissiveFactor":[
				1,
				1,
				1
			],
			"emissiveTexture":{
				"index":0
			},
			"extensions":{
				"KHR_materials_emissive_strength":{
					"emissiveStrength":1.2000000476837158
				}
			},
			"name":"Door",
			"pbrMetallicRoughness":{
				"baseColorFactor":[
					0.054999999701976776,
					0.054999999701976776,
					0.054999999701976776,
					1
				],
				"metallicFactor":0,
				"roughnessFactor":0.9631516933441162
			}
		}
	],
	"meshes":[
		{
			"name":"Cube.012_Door_0.001",
			"primitives":[
				{
					"attributes":{
						"POSITION":0,
						"TEXCOORD_0":1,
						"NORMAL":2
					},
					"indices":3,
					"material":0
				}
			]
		}
	],
	"textures":[
		{
			"sampler":0,
			"source":0
		}
	],
	"images":[
		{
			"bufferView":4,
			"mimeType":"image/png",
			"name":"Door_emissive"
		}
	],
	"accessors":[
		{
			"bufferView":0,
			"componentType":5126,
			"count":493,
			"max":[
				0.22757838666439056,
				9.327778816223145,
				2.099999189376831
			],
			"min":[
				0.09091649949550629,
				8.428462028503418,
				-3.5762786865234375e-07
			],
			"type":"VEC3"
		},
		{
			"bufferView":1,
			"componentType":5126,
			"count":493,
			"type":"VEC2"
		},
		{
			"bufferView":2,
			"componentType":5126,
			"count":493,
			"type":"VEC3"
		},
		{
			"bufferView":3,
			"componentType":5123,
			"count":2007,
			"type":"SCALAR"
		}
	],
	"bufferViews":[
		{
			"buffer":0,
			"byteLength":5916,
			"byteOffset":0,
			"target":34962
		},
		{
			"buffer":0,
			"byteLength":3944,
			"byteOffset":5916,
			"target":34962
		},
		{
			"buffer":0,
			"byteLength":5916,
			"byteOffset":9860,
			"target":34962
		},
		{
			"buffer":0,
			"byteLength":4014,
			"byteOffset":15776,
			"target":34963
		},
		{
			"buffer":0,
			"byteLength":1264698,
			"byteOffset":19792
		}
	],
	"samplers":[
		{
			"magFilter":9729,
			"minFilter":9987
		}
	],
	"buffers":[
		{
			"byteLength":1284492,
			"uri":"data:application/octet-stream;base64,"
		}
	]
}
