{
  "accessors": [
    {
      "bufferView": 2,
      "componentType": 5126,
      "count": 3510,
      "max": [
        0.6079189777374268,
        0.6868000030517578,
        1.0
      ],
      "min": [
        -0.6079189777374268,
        -0.6868000030517578,
        -1.0
      ],
      "type": "VEC3"
    },
    {
      "bufferView": 2,
      "byteOffset": 42120,
      "componentType": 5126,
      "count": 3510,
      "max": [
        0.994425892829895,
        1.0,
        0.99709552526474
      ],
      "min": [
        -0.9991145133972168,
        -1.0,
        -0.9845893383026123
      ],
      "type": "VEC3"
    },
    {
      "bufferView": 3,
      "componentType": 5126,
      "count": 3510,
      "max": [
        0.99709552526474,
        1.0,
        0.9958019852638245,
        1.0
      ],
      "min": [
        -0.9973339438438416,
        -1.0,
        -0.998442530632019,
        -1.0
      ],
      "type": "VEC4"
    },
    {
      "bufferView": 1,
      "componentType": 5126,
      "count": 3510,
      "max": [
        0.9975029826164246,
        0.9927089810371399
      ],
      "min": [
        0.009265240281820297,
        0.00835695955902338
      ],
      "type": "VEC2"
    },
    {
      "bufferView": 0,
      "componentType": 5125,
      "count": 8562,
      "type": "SCALAR"
    }
  ],
  "asset": {
    "extras": {
      "author": "qwerty14t (https://sketchfab.com/qwerty14t)",
      "license": "CC-BY-NC-4.0 (http://creativecommons.org/licenses/by-nc/4.0/)",
      "source": "https://sketchfab.com/3d-models/tv-sony-bravia-kdl-40re353-1daed79d27b644f7845dfbb9e5f20ce3",
      "title": "TV Sony BRAVIA KDL-40RE353"
    },
    "generator": "Sketchfab-12.67.0",
    "version": "2.0"
  },
  "bufferViews": [
    {
      "buffer": 0,
      "byteLength": 34248,
      "name": "floatBufferViews",
      "target": 34963
    },
    {
      "buffer": 0,
      "byteLength": 28080,
      "byteOffset": 34248,
      "byteStride": 8,
      "name": "floatBufferViews",
      "target": 34962
    },
    {
      "buffer": 0,
      "byteLength": 84240,
      "byteOffset": 62328,
      "byteStride": 12,
      "name": "floatBufferViews",
      "target": 34962
    },
    {
      "buffer": 0,
      "byteLength": 56160,
      "byteOffset": 146568,
      "byteStride": 16,
      "name": "floatBufferViews",
      "target": 34962
    }
  ],
  "buffers": [
    {
      "byteLength": 202728,
      "uri": "scene.bin"
    }
  ],
  "images": [
    {
      "uri": "textures/Material__28_baseColor.jpeg"
    },
    {
      "uri": "textures/Material__28_metallicRoughness.png"
    },
    {
      "uri": "textures/Material__28_emissive.png"
    },
    {
      "uri": "textures/Material__28_normal.png"
    }
  ],
  "materials": [
    {
      "doubleSided": true,
      "emissiveFactor": [
        0.05,
        0.05,
        0.05
      ],
      "emissiveTexture": {
        "index": 2
      },
      "name": "Material__28",
      "normalTexture": {
        "index": 3
      },
      "pbrMetallicRoughness": {
        "baseColorTexture": {
          "index": 0
        },
        "metallicRoughnessTexture": {
          "index": 1
        }
      }
    }
  ],
  "meshes": [
    {
      "name": "defaultMaterial",
      "primitives": [
        {
          "attributes": {
            "NORMAL": 1,
            "POSITION": 0,
            "TANGENT": 2,
            "TEXCOORD_0": 3
          },
          "indices": 4,
          "material": 0,
          "mode": 4
        }
      ]
    }
  ],
  "nodes": [
    {
      "children": [
        1
      ],
      "matrix": [
        1.0,
        0.0,
        0.0,
        0.0,
        0.0,
        2.220446049250313e-16,
        -1.0,
        0.0,
        0.0,
        1.0,
        2.220446049250313e-16,
        0.0,
        0.0,
        0.0,
        0.0,
        1.0
      ],
      "name": "Sketchfab_model"
    },
    {
      "children": [
        2
      ],
      "matrix": [
        1.0,
        0.0,
        0.0,
        0.0,
        0.0,
        -4.371139006309477e-08,
        0.999999999999999,
        0.0,
        0.0,
        -0.999999999999999,
        -4.371139006309477e-08,
        0.0,
        0.0,
        0.0,
        0.0,
        1.0
      ],
      "name": "Collada visual scene group"
    },
    {
      "children": [
        3
      ],
      "name": "Object033"
    },
    {
      "mesh": 0,
      "name": "defaultMaterial"
    }
  ],
  "samplers": [
    {
      "magFilter": 9729,
      "minFilter": 9987,
      "wrapS": 10497,
      "wrapT": 10497
    }
  ],
  "scene": 0,
  "scenes": [
    {
      "name": "Sketchfab_Scene",
      "nodes": [
        0
      ]
    }
  ],
  "textures": [
    {
      "sampler": 0,
      "source": 0
    },
    {
      "sampler": 0,
      "source": 1
    },
    {
      "sampler": 0,
      "source": 2
    },
    {
      "sampler": 0,
      "source": 3
    }
  ]
}
