{
	"asset":{
		"generator":"Khronos glTF Blender I/O v3.5.30",
		"version":"2.0"
	},
	"extensionsUsed":[
		"KHR_materials_emissive_strength"
	],
	"scene":0,
	"scenes":[
		{
			"name":"Scene",
			"nodes":[
				0,
				1,
				2
			]
		}
	],
	"nodes":[
		{
			"mesh":0,
			"name":"Cube.012_Door_0.002",
			"rotation":[
				-0.7067100405693054,
				-0.02785065583884716,
				-0.033988893032073975,
				0.7061374187469482
			],
			"translation":[
				-0.8778063058853149,
				0.018539652228355408,
				8.381321907043457
			]
		},
		{
			"mesh":1,
			"name":"Cube.012_Door_0.001",
			"rotation":[
				-0.7067100405693054,
				-0.02785065583884716,
				-0.033988893032073975,
				0.7061374187469482
			],
			"translation":[
				-0.8778063058853149,
				0.018539652228355408,
				8.381321907043457
			]
		},
		{
			"mesh":1,
			"name":"Cube.012_Door_0.003",
			"rotation":[
				0.7064124345779419,
				0.028585756197571754,
				-0.03502102941274643,
				0.7063553333282471
			],
			"scale":[
				-1,
				-1.0000001192092896,
				-1.0000001192092896
			],
			"translation":[
				0.9901487827301025,
				0.0008704913780093193,
				8.378332138061523
			]
		}
	],
	"materials":[
		{
			"doubleSided":true,
			"emissiveFactor":[
				1,
				1,
				1
			],
			"emissiveTexture":{
				"index":0
			},
			"extensions":{
				"KHR_materials_emissive_strength":{
					"emissiveStrength":1.2000000476837158
				}
			},
			"name":"Door",
			"pbrMetallicRoughness":{
				"baseColorFactor":[
					0.054999999701976776,
					0.054999999701976776,
					0.054999999701976776,
					1
				],
				"metallicFactor":0,
				"roughnessFactor":0.9631516933441162
			}
		}
	],
	"meshes":[
		{
			"name":"Cube.012_Door_0.001",
			"primitives":[
				{
					"attributes":{
						"POSITION":0,
						"TEXCOORD_0":1,
						"NORMAL":2
					},
					"indices":3,
					"material":0
				}
			]
		},
		{
			"name":"Cube.012_Door_0.002",
			"primitives":[
				{
					"attributes":{
						"POSITION":4,
						"TEXCOORD_0":5,
						"NORMAL":6
					},
					"indices":7,
					"material":0
				}
			]
		}
	],
	"textures":[
		{
			"sampler":0,
			"source":0
		}
	],
	"images":[
		{
			"bufferView":4,
			"mimeType":"image/png",
			"name":"Door_emissive"
		}
	],
	"accessors":[
		{
			"bufferView":0,
			"componentType":5126,
			"count":26,
			"max":[
				0.2100464105606079,
				9.327778816223145,
				2.099999189376831
			],
			"min":[
				0.09091649949550629,
				8.428462028503418,
				-3.5762786865234375e-07
			],
			"type":"VEC3"
		},
		{
			"bufferView":1,
			"componentType":5126,
			"count":26,
			"type":"VEC2"
		},
		{
			"bufferView":2,
			"componentType":5126,
			"count":26,
			"type":"VEC3"
		},
		{
			"bufferView":3,
			"componentType":5123,
			"count":36,
			"type":"SCALAR"
		},
		{
			"bufferView":5,
			"componentType":5126,
			"count":467,
			"max":[
				0.22757838666439056,
				9.273314476013184,
				1.1491755247116089
			],
			"min":[
				0.13097578287124634,
				9.105976104736328,
				0.9508232474327087
			],
			"type":"VEC3"
		},
		{
			"bufferView":6,
			"componentType":5126,
			"count":467,
			"type":"VEC2"
		},
		{
			"bufferView":7,
			"componentType":5126,
			"count":467,
			"type":"VEC3"
		},
		{
			"bufferView":8,
			"componentType":5123,
			"count":1971,
			"type":"SCALAR"
		}
	],
	"bufferViews":[
		{
			"buffer":0,
			"byteLength":312,
			"byteOffset":0,
			"target":34962
		},
		{
			"buffer":0,
			"byteLength":208,
			"byteOffset":312,
			"target":34962
		},
		{
			"buffer":0,
			"byteLength":312,
			"byteOffset":520,
			"target":34962
		},
		{
			"buffer":0,
			"byteLength":72,
			"byteOffset":832,
			"target":34963
		},
		{
			"buffer":0,
			"byteLength":1570168,
			"byteOffset":904
		},
		{
			"buffer":0,
			"byteLength":5604,
			"byteOffset":1571072,
			"target":34962
		},
		{
			"buffer":0,
			"byteLength":3736,
			"byteOffset":1576676,
			"target":34962
		},
		{
			"buffer":0,
			"byteLength":5604,
			"byteOffset":1580412,
			"target":34962
		},
		{
			"buffer":0,
			"byteLength":3942,
			"byteOffset":1586016,
			"target":34963
		}
	],
	"samplers":[
		{
			"magFilter":9729,
			"minFilter":9987
		}
	],
	"buffers":[
		{
			"byteLength":1589960,
			"uri":"data:application/octet-stream;base64,"
		}
	]
}
