{
	"asset":{
		"generator":"Khronos glTF Blender I/O v3.5.30",
		"version":"2.0"
	},
	"scene":0,
	"scenes":[
		{
			"name":"Scene",
			"nodes":[
				5
			]
		}
	],
	"nodes":[
		{
			"mesh":0,
			"name":"AC_Ac_0"
		},
		{
			"mesh":1,
			"name":"AC_Ac_0.001",
			"translation":[
				-0.16741696000099182,
				-0.305989533662796,
				0.7539376616477966
			]
		},
		{
			"children":[
				0,
				1
			],
			"name":"AC"
		},
		{
			"children":[
				2
			],
			"name":"RootNode"
		},
		{
			"children":[
				3
			],
			"name":"AC.fbx",
			"rotation":[
				0.70710688829422,
				0,
				0,
				0.7071066498756409
			]
		},
		{
			"children":[
				4
			],
			"name":"Sketchfab_model",
			"rotation":[
				-0.70710688829422,
				0,
				0,
				0.7071066498756409
			]
		}
	],
	"materials":[
		{
			"doubleSided":true,
			"emissiveFactor":[
				1,
				1,
				1
			],
			"emissiveTexture":{
				"index":0
			},
			"name":"material",
			"normalTexture":{
				"index":1
			},
			"occlusionTexture":{
				"index":2
			},
			"pbrMetallicRoughness":{
				"baseColorTexture":{
					"index":3
				},
				"metallicRoughnessTexture":{
					"index":2
				}
			}
		}
	],
	"meshes":[
		{
			"name":"AC_Ac_0",
			"primitives":[
				{
					"attributes":{
						"POSITION":0,
						"TEXCOORD_0":1,
						"NORMAL":2
					},
					"indices":3,
					"material":0
				}
			]
		},
		{
			"name":"AC_Ac_0.001",
			"primitives":[
				{
					"attributes":{
						"POSITION":4,
						"TEXCOORD_0":5,
						"NORMAL":6
					},
					"indices":7,
					"material":0
				}
			]
		}
	],
	"textures":[
		{
			"sampler":0,
			"source":0
		},
		{
			"sampler":0,
			"source":1
		},
		{
			"sampler":0,
			"source":2
		},
		{
			"sampler":0,
			"source":3
		}
	],
	"images":[
		{
			"bufferView":4,
			"mimeType":"image/jpeg",
			"name":"material_emissive"
		},
		{
			"bufferView":5,
			"mimeType":"image/png",
			"name":"material_normal"
		},
		{
			"bufferView":6,
			"mimeType":"image/png",
			"name":"material_metallicRoughness"
		},
		{
			"bufferView":7,
			"mimeType":"image/jpeg",
			"name":"material_baseColor"
		}
	],
	"accessors":[
		{
			"bufferView":0,
			"componentType":5126,
			"count":240,
			"max":[
				8,
				7.368100643157959,
				2.115176200866699
			],
			"min":[
				-6,
				3.368100643157959,
				-2
			],
			"type":"VEC3"
		},
		{
			"bufferView":1,
			"componentType":5126,
			"count":240,
			"type":"VEC2"
		},
		{
			"bufferView":2,
			"componentType":5126,
			"count":240,
			"type":"VEC3"
		},
		{
			"bufferView":3,
			"componentType":5123,
			"count":993,
			"type":"SCALAR"
		},
		{
			"bufferView":8,
			"componentType":5126,
			"count":23,
			"max":[
				6.355389595031738,
				4.150959014892578,
				1.6145212650299072
			],
			"min":[
				-4.355390548706055,
				3.444810628890991,
				0.6704511046409607
			],
			"type":"VEC3"
		},
		{
			"bufferView":9,
			"componentType":5126,
			"count":23,
			"type":"VEC2"
		},
		{
			"bufferView":10,
			"componentType":5126,
			"count":23,
			"type":"VEC3"
		},
		{
			"bufferView":11,
			"componentType":5123,
			"count":51,
			"type":"SCALAR"
		}
	],
	"bufferViews":[
		{
			"buffer":0,
			"byteLength":2880,
			"byteOffset":0,
			"target":34962
		},
		{
			"buffer":0,
			"byteLength":1920,
			"byteOffset":2880,
			"target":34962
		},
		{
			"buffer":0,
			"byteLength":2880,
			"byteOffset":4800,
			"target":34962
		},
		{
			"buffer":0,
			"byteLength":1986,
			"byteOffset":7680,
			"target":34963
		},
		{
			"buffer":0,
			"byteLength":53606,
			"byteOffset":9668
		},
		{
			"buffer":0,
			"byteLength":498526,
			"byteOffset":63276
		},
		{
			"buffer":0,
			"byteLength":2047016,
			"byteOffset":561804
		},
		{
			"buffer":0,
			"byteLength":235138,
			"byteOffset":2608820
		},
		{
			"buffer":0,
			"byteLength":276,
			"byteOffset":2843960,
			"target":34962
		},
		{
			"buffer":0,
			"byteLength":184,
			"byteOffset":2844236,
			"target":34962
		},
		{
			"buffer":0,
			"byteLength":276,
			"byteOffset":2844420,
			"target":34962
		},
		{
			"buffer":0,
			"byteLength":102,
			"byteOffset":2844696,
			"target":34963
		}
	],
	"samplers":[
		{
			"magFilter":9729,
			"minFilter":9987
		}
	],
	"buffers":[
		{
			"byteLength":2844800,
			"uri":"data:application/octet-stream;base64,"
		}
	]
}
