{
	"asset":{
		"generator":"Khronos glTF Blender I/O v3.5.30",
		"version":"2.0"
	},
	"extensionsUsed":[
		"KHR_materials_emissive_strength"
	],
	"scene":0,
	"scenes":[
		{
			"name":"Scene",
			"nodes":[
				0
			]
		}
	],
	"nodes":[
		{
			"mesh":0,
			"name":"Cube.012_Door_0.001",
			"rotation":[
				-0.7060049176216125,
				-0.00011383541277609766,
				-0.001968777272850275,
				0.7082042098045349
			],
			"translation":[
				-0.020192820578813553,
				-0.02142038568854332,
				8.469937324523926
			]
		}
	],
	"materials":[
		{
			"doubleSided":true,
			"emissiveFactor":[
				1,
				1,
				1
			],
			"emissiveTexture":{
				"index":0
			},
			"extensions":{
				"KHR_materials_emissive_strength":{
					"emissiveStrength":1.2000000476837158
				}
			},
			"name":"Door",
			"pbrMetallicRoughness":{
				"baseColorFactor":[
					0.054999999701976776,
					0.054999999701976776,
					0.054999999701976776,
					1
				],
				"metallicFactor":0,
				"roughnessFactor":0.9631516933441162
			}
		}
	],
	"meshes":[
		{
			"name":"Cube.012_Door_0.002",
			"primitives":[
				{
					"attributes":{
						"POSITION":0,
						"TEXCOORD_0":1,
						"NORMAL":2
					},
					"indices":3,
					"material":0
				}
			]
		}
	],
	"textures":[
		{
			"sampler":0,
			"source":0
		}
	],
	"images":[
		{
			"bufferView":4,
			"mimeType":"image/png",
			"name":"Door_emissive"
		}
	],
	"accessors":[
		{
			"bufferView":0,
			"componentType":5126,
			"count":587,
			"max":[
				1.1574679613113403,
				9.327778816223145,
				2.158083438873291
			],
			"min":[
				0.09091649949550629,
				8.346125602722168,
				-3.5762786865234375e-07
			],
			"type":"VEC3"
		},
		{
			"bufferView":1,
			"componentType":5126,
			"count":587,
			"type":"VEC2"
		},
		{
			"bufferView":2,
			"componentType":5126,
			"count":587,
			"type":"VEC3"
		},
		{
			"bufferView":3,
			"componentType":5123,
			"count":2145,
			"type":"SCALAR"
		}
	],
	"bufferViews":[
		{
			"buffer":0,
			"byteLength":7044,
			"byteOffset":0,
			"target":34962
		},
		{
			"buffer":0,
			"byteLength":4696,
			"byteOffset":7044,
			"target":34962
		},
		{
			"buffer":0,
			"byteLength":7044,
			"byteOffset":11740,
			"target":34962
		},
		{
			"buffer":0,
			"byteLength":4290,
			"byteOffset":18784,
			"target":34963
		},
		{
			"buffer":0,
			"byteLength":1264698,
			"byteOffset":23076
		}
	],
	"samplers":[
		{
			"magFilter":9729,
			"minFilter":9987
		}
	],
	"buffers":[
		{
			"byteLength":1287776,
			"uri":"data:application/octet-stream;base64,"
		}
	]
}
