{
	"asset":{
		"generator":"Khronos glTF Blender I/O v3.5.30",
		"version":"2.0"
	},
	"extensionsUsed":[
		"KHR_materials_emissive_strength"
	],
	"scene":0,
	"scenes":[
		{
			"name":"Scene",
			"nodes":[
				0
			]
		}
	],
	"nodes":[
		{
			"mesh":0,
			"name":"Cube.012_Door_0.002",
			"rotation":[
				0.7065654993057251,
				-0.00037994806189090014,
				5.789245915366337e-05,
				0.7076476216316223
			],
			"scale":[
				-0.9999998807907104,
				-1.0000001192092896,
				-1
			],
			"translation":[
				4.211663246154785,
				0.01663355529308319,
				-2.083340883255005
			]
		}
	],
	"materials":[
		{
			"doubleSided":true,
			"emissiveFactor":[
				1,
				1,
				1
			],
			"emissiveTexture":{
				"index":0
			},
			"extensions":{
				"KHR_materials_emissive_strength":{
					"emissiveStrength":1.2000000476837158
				}
			},
			"name":"Door.001",
			"pbrMetallicRoughness":{
				"baseColorFactor":[
					0.054999999701976776,
					0.054999999701976776,
					0.054999999701976776,
					1
				],
				"metallicFactor":0,
				"roughnessFactor":0.9631516933441162
			}
		}
	],
	"meshes":[
		{
			"name":"Cube.012_Door_0.003",
			"primitives":[
				{
					"attributes":{
						"POSITION":0,
						"TEXCOORD_0":1,
						"NORMAL":2
					},
					"indices":3,
					"material":0
				}
			]
		}
	],
	"textures":[
		{
			"sampler":0,
			"source":0
		}
	],
	"images":[
		{
			"bufferView":4,
			"mimeType":"image/png",
			"name":"Door_emissive"
		}
	],
	"accessors":[
		{
			"bufferView":0,
			"componentType":5126,
			"count":658,
			"max":[
				5.287031650543213,
				-1.8716745376586914,
				2.158083438873291
			],
			"min":[
				4.222745418548584,
				-2.037606716156006,
				-3.5762786865234375e-07
			],
			"type":"VEC3"
		},
		{
			"bufferView":1,
			"componentType":5126,
			"count":658,
			"type":"VEC2"
		},
		{
			"bufferView":2,
			"componentType":5126,
			"count":658,
			"type":"VEC3"
		},
		{
			"bufferView":3,
			"componentType":5123,
			"count":2148,
			"type":"SCALAR"
		}
	],
	"bufferViews":[
		{
			"buffer":0,
			"byteLength":7896,
			"byteOffset":0,
			"target":34962
		},
		{
			"buffer":0,
			"byteLength":5264,
			"byteOffset":7896,
			"target":34962
		},
		{
			"buffer":0,
			"byteLength":7896,
			"byteOffset":13160,
			"target":34962
		},
		{
			"buffer":0,
			"byteLength":4296,
			"byteOffset":21056,
			"target":34963
		},
		{
			"buffer":0,
			"byteLength":1264698,
			"byteOffset":25352
		}
	],
	"samplers":[
		{
			"magFilter":9729,
			"minFilter":9987
		}
	],
	"buffers":[
		{
			"byteLength":1290052,
			"uri":"data:application/octet-stream;base64,"
		}
	]
}
